<svg xmlns="http://www.w3.org/2000/svg" xmlns:xlink="http://www.w3.org/1999/xlink" width="40" height="40" viewBox="0 0 40 40"><defs><style>.a{fill:url(#a);}.b{fill:#fff;}</style><linearGradient id="a" x1="0.565" y1="0.909" x2="-0.162" y2="-0.049" gradientUnits="objectBoundingBox"><stop offset="0" stop-color="#4272a6"/><stop offset="1" stop-color="#eb4662"/></linearGradient></defs><g transform="translate(-32 -134)"><g transform="translate(32 134)"><path class="a" d="M20,0A20,20,0,1,1,0,20,20,20,0,0,1,20,0Z"/><g transform="translate(-0.147 12.991)"><g transform="translate(11.147 -2.298)"><path class="b" d="M27.374,46.4h-.031a8.841,8.841,0,0,0-5.04-7.539,1.866,1.866,0,0,1-.2,1.213c2.289.951,3.694,3.312,4,6.326H13.381a7.756,7.756,0,0,1,3.856-6.326,1.889,1.889,0,0,1-.144-1.143A8.957,8.957,0,0,0,12.337,46.4h-.288a.834.834,0,0,0-.858,1.117L13.1,54.185A1.644,1.644,0,0,0,14.6,55.3h10.02a1.686,1.686,0,0,0,1.522-1.111l2.064-6.68A.814.814,0,0,0,27.374,46.4Z" transform="translate(-11.147 -36.928)"/><circle class="b" cx="2" cy="2" r="2" transform="translate(6.605 0.307)"/></g></g></g></g></svg>