<svg xmlns="http://www.w3.org/2000/svg" xmlns:xlink="http://www.w3.org/1999/xlink" width="40" height="40" viewBox="0 0 40 40"><defs><style>.a{fill:url(#a);}.b{fill:none;}.c{fill:#fff;}</style><linearGradient id="a" x1="0.565" y1="0.909" x2="-0.162" y2="-0.049" gradientUnits="objectBoundingBox"><stop offset="0" stop-color="#4272a6"/><stop offset="1" stop-color="#eb4662"/></linearGradient></defs><g transform="translate(-32 -134)"><g transform="translate(32 134)"><path class="a" d="M20,0A20,20,0,1,1,0,20,20,20,0,0,1,20,0Z"/><rect class="b" width="24" height="24" transform="translate(8 8)"/><g transform="translate(-98.712 -21.062)"><g transform="translate(109.82 32.675)"><path class="c" d="M125.242,175.432l1.432.855.066-4.531-3.958,2.208,1.432.855-1.786,2.992-7.472-6.246-5.137,6.217.922.762,4.371-5.29,7.624,6.373Z" transform="translate(-109.82 -166.602)"/><path class="c" d="M378.23,40.618l3.506-4.483,1.314,1.027.632-4.487-4.2,1.7,1.314,1.028-3.506,4.483Z" transform="translate(-367.73 -32.675)"/><path class="c" d="M141.127,318.072l-3.747,4.837.946.732,2.916-3.763,1.542,1.542,2.361-3.1-.952-.725-1.532,2.011Z" transform="translate(-136.395 -307.413)"/></g></g></g></g></svg>