<svg xmlns="http://www.w3.org/2000/svg" xmlns:xlink="http://www.w3.org/1999/xlink" width="40" height="40" viewBox="0 0 40 40"><defs><style>.a{fill:url(#a);}.b{fill:none;}.c{fill:#fff;}</style><linearGradient id="a" x1="0.565" y1="0.909" x2="-0.162" y2="-0.049" gradientUnits="objectBoundingBox"><stop offset="0" stop-color="#4272a6"/><stop offset="1" stop-color="#eb4662"/></linearGradient></defs><g transform="translate(-32 -134)"><g transform="translate(32 134)"><path class="a" d="M20,0A20,20,0,1,1,0,20,20,20,0,0,1,20,0Z"/></g><g transform="translate(40 142)"><path class="b" d="M0,0H24V24H0Z"/><g transform="translate(0.001 -0.681)"><g transform="translate(-0.001 4.681)"><path class="c" d="M20.939,15.492c-.384-.078-.511-.635-.5-1.088.01-.525.2-.856.514-.908a2.79,2.79,0,0,1,.82,0,3.018,3.018,0,0,0-.257-.726c-.361-.664-.964-.58-1.658-1.347C18.213,9.6,15.787,6.765,14.072,6.846c-2.435.114-10.583,3.956-11,4.12S1.119,10.283,1.1,9.783A2.9,2.9,0,0,1,2.781,7.825a19.072,19.072,0,0,0,2.527-.16,2.375,2.375,0,0,0,.911-1.389c0-.341-.911-1.047-.911-1.047s-.342-.57-.8-.547-1.07.592-1.48.547c.114.432,1.024.888,1.406.868a1.562,1.562,0,0,0,.779-.367,1.269,1.269,0,0,1,.524.41c.127.19-.091.66-.455.864s-2.071-.113-2.733.046S-.089,9.1,0,9.874s2.116,2.551,2.867,2.688c-.5,1.068.023,3.663-.2,3.846s-1.093-.275-1.281.185,1.053,2.705.87,3a2.262,2.262,0,0,0-.15.969l1.926-.014a1.43,1.43,0,0,0-.539-.978L3.22,18.387A6.186,6.186,0,0,0,5.1,16.906a2.781,2.781,0,0,0,1.048,1.117c.273.092-.546.182-.417.55s3.127,1.453,3.176,1.665a.834.834,0,0,0-.1.905l1.71.044a2.075,2.075,0,0,0-1.084-1.561l-1.4-1.539a6.6,6.6,0,0,0,1.506-3.156,4.75,4.75,0,0,0,2.875,1.362s-1.485,3.566-1.584,3.8.215,1.092.215,1.092h1.866c-.113-.446-1.071-1.094-1.071-1.094l2.6-3.83.661-.01a21.921,21.921,0,0,1,.592,3.434,3.954,3.954,0,0,0-.115,1.138l1.913-.046a1.492,1.492,0,0,0-.637-1l.044-3.552a2.344,2.344,0,0,0,1.621-.024,6.952,6.952,0,0,0-.23,2.46.83.83,0,0,0,.842.479A12.476,12.476,0,0,0,21.7,16.4a2.536,2.536,0,0,0,.221-.984c-.122.01-.245.023-.363.043A1.968,1.968,0,0,1,20.939,15.492Z" transform="translate(0.001 -4.681)"/><path class="c" d="M28.322,16.593a2.989,2.989,0,0,0-2.163-.568c-.413.065-.342,1.388,0,1.457s1-.229,1.594-.022,1.411,1.138,1.411.843A2.572,2.572,0,0,0,28.322,16.593Z" transform="translate(-5.165 -6.939)"/></g></g></g></g></svg>