<svg xmlns="http://www.w3.org/2000/svg" xmlns:xlink="http://www.w3.org/1999/xlink" width="40" height="40" viewBox="0 0 40 40"><defs><style>.a{fill:url(#a);}.b{fill:none;}.c{fill:#fff;}</style><linearGradient id="a" x1="0.565" y1="0.909" x2="-0.162" y2="-0.049" gradientUnits="objectBoundingBox"><stop offset="0" stop-color="#4272a6"/><stop offset="1" stop-color="#eb4662"/></linearGradient></defs><g transform="translate(-4143 1134)"><path class="a" d="M20,0A20,20,0,1,1,0,20,20,20,0,0,1,20,0Z" transform="translate(4143 -1134)"/><path class="a" d="M20,0A20,20,0,1,1,0,20,20,20,0,0,1,20,0Z" transform="translate(4143 -1134)"/><rect class="b" width="24" height="24" transform="translate(4151 -1126)"/><path class="c" d="M-3109.973,1231.487v-.215c.174-.378.332-.764.524-1.133.495-.949,1.014-1.887,1.507-2.839a1.184,1.184,0,0,1,1.177-.71c1.189.022,2.379.016,3.568,0a1.109,1.109,0,0,1,1.082.641q.929,1.751,1.865,3.5a1.174,1.174,0,0,1-.051,1.334.9.9,0,0,1-.7.394q-.173.011-.348.011h-7.216C-3109.48,1232.471-3109.684,1232.329-3109.973,1231.487Zm-11,0v-.215c.174-.378.332-.764.524-1.133.5-.949,1.014-1.887,1.507-2.839a1.183,1.183,0,0,1,1.177-.71c1.189.022,2.379.016,3.568,0a1.109,1.109,0,0,1,1.082.641c.619,1.167,1.245,2.331,1.865,3.5a1.175,1.175,0,0,1-.051,1.334.9.9,0,0,1-.7.394q-.173.011-.348.011h-7.216C-3120.48,1232.471-3120.684,1232.329-3120.972,1231.487Zm18.739-6.748a.374.374,0,0,0-.371-.36c-.352-.057-.7-.141-1.049-.217a1.584,1.584,0,0,1-.21-.077c.465-.1.88-.21,1.3-.275.224-.034.287-.142.323-.341.077-.419.177-.834.268-1.251h.041c.092.427.191.851.272,1.28a.315.315,0,0,0,.3.307,8.734,8.734,0,0,1,1.281.319c-.4.085-.792.186-1.192.252a.4.4,0,0,0-.4.393,7.708,7.708,0,0,1-.3,1.224C-3102.06,1225.574-3102.17,1225.16-3102.233,1224.739Zm-12.332.732c-.915,0-1.119-.142-1.408-.984v-.215c.174-.378.332-.764.524-1.133.5-.949,1.015-1.887,1.507-2.839a1.183,1.183,0,0,1,1.177-.71c1.189.021,2.379.016,3.569,0a1.11,1.11,0,0,1,1.082.64c.618,1.167,1.244,2.331,1.864,3.5a1.175,1.175,0,0,1-.052,1.335.9.9,0,0,1-.7.393c-.115.007-.231.012-.347.012Zm-3.667-1.732a.375.375,0,0,0-.371-.36c-.353-.057-.7-.141-1.05-.217a1.827,1.827,0,0,1-.21-.077c.465-.1.88-.211,1.3-.275.224-.034.288-.142.324-.341.076-.419.177-.834.267-1.251h.042c.092.427.192.851.272,1.28a.314.314,0,0,0,.3.306,8.956,8.956,0,0,1,1.281.319c-.4.086-.792.187-1.192.253a.4.4,0,0,0-.4.393,7.812,7.812,0,0,1-.3,1.224C-3118.059,1224.574-3118.17,1224.16-3118.233,1223.739Zm11-5a.374.374,0,0,0-.371-.359c-.353-.058-.7-.142-1.049-.217a1.857,1.857,0,0,1-.21-.077c.465-.1.879-.211,1.3-.275.225-.035.288-.142.324-.341.077-.42.177-.835.267-1.252h.042c.091.426.191.85.271,1.279.034.181.1.274.3.307a8.847,8.847,0,0,1,1.282.318c-.4.086-.792.186-1.193.253-.243.041-.364.129-.4.392a7.93,7.93,0,0,1-.3,1.224C-3107.059,1219.574-3107.17,1219.16-3107.233,1218.739Z" transform="translate(7273.973 -2338.217)"/></g></svg>