<svg xmlns="http://www.w3.org/2000/svg" xmlns:xlink="http://www.w3.org/1999/xlink" width="40" height="40" viewBox="0 0 40 40"><defs><style>.a{fill:url(#a);}.b{fill:#fff;}.c{fill:none;}</style><linearGradient id="a" x1="0.565" y1="0.909" x2="-0.162" y2="-0.049" gradientUnits="objectBoundingBox"><stop offset="0" stop-color="#4272a6"/><stop offset="1" stop-color="#eb4662"/></linearGradient></defs><g transform="translate(-32 -134)"><g transform="translate(32 134)"><path class="a" d="M20,0A20,20,0,1,1,0,20,20,20,0,0,1,20,0Z"/><g transform="translate(12.005 9.99)"><path class="b" d="M97.559,81.608a2.949,2.949,0,0,0,.788.788,2.894,2.894,0,0,0,1.626.5h0a2.894,2.894,0,0,0,1.626-.5,2.95,2.95,0,0,0,.788-.788,2.9,2.9,0,0,0,.269-2.757,2.944,2.944,0,0,0-1.057-1.283,2.9,2.9,0,0,0-3.251,0,2.949,2.949,0,0,0-.788.788,2.9,2.9,0,0,0,0,3.251Z" transform="translate(-91.826 -72.834)"/><path class="b" d="M16.924,8.992l-.263,1.883a.775.775,0,0,0,.017.267.81.81,0,0,0,.1.242.878.878,0,0,0,.174.2,1.128,1.128,0,0,0,.322.168c.145.054,1.142.251,1.142.251l.732.129.891,1.64a.78.78,0,0,0,.713.447.852.852,0,0,0,.319-.062l.626-.282.974-.445v0l.142-.061,1.66.81a.8.8,0,0,0,.364.081.849.849,0,0,0,.407-.1.75.75,0,0,0,.3-.3l.911-1.64,1.215-.223.81-.182a.788.788,0,0,0,.354-.331.91.91,0,0,0,.111-.5l-.223-1.862L30,7.777a.776.776,0,0,0,.223-.534.877.877,0,0,0-.2-.579L28.747,5.287,29.01,3.4a.8.8,0,0,0-.027-.3.866.866,0,0,0-.13-.268.8.8,0,0,0-.491-.324L26.52,2.15,25.629.51a.78.78,0,0,0-.713-.447A.852.852,0,0,0,24.6.125h-.02l-1.7.79L21.216.1a.774.774,0,0,0-.375-.1.829.829,0,0,0-.233.034.8.8,0,0,0-.466.385l-.911,1.64-1.842.324a.817.817,0,0,0-.509.319.867.867,0,0,0-.159.592l.223,1.862L15.669,6.5a.776.776,0,0,0-.223.534.877.877,0,0,0,.2.579Zm1.925-2.656a4.032,4.032,0,0,1,.611-1.446,4.1,4.1,0,0,1,1.1-1.1,4.015,4.015,0,0,1,2.26-.694h0a4.023,4.023,0,0,1,2.26.694,4.1,4.1,0,0,1,1.1,1.1,4.025,4.025,0,0,1,0,4.519,4.1,4.1,0,0,1-1.1,1.1,4.025,4.025,0,0,1-4.519,0,4.1,4.1,0,0,1-1.1-1.1,4.032,4.032,0,0,1-.611-3.073Z" transform="translate(-14.669 0)"/><path class="b" d="M16.248,258.363,14.033,253.2l-.007,0-.689.155-1.033.189-1.153,1.875a.637.637,0,0,1-.256.256.716.716,0,0,1-.347.088.679.679,0,0,1-.31-.069L8.88,255.25l-.731-.346,0,0,0,0,0,0,0,0-.731.346-1.447.442a.679.679,0,0,1-.31.069.728.728,0,0,1-.347-.088.637.637,0,0,1-.256-.256l-1.064-1.869-1.033-.189-.689-.155-.007,0L.045,258.363a.285.285,0,0,0,.017.345.332.332,0,0,0,.293.172H3.111l1.257,2.239a.332.332,0,0,0,.293.172.356.356,0,0,0,.293-.172l2.2-4.239.992-1.97.992,1.97,2.2,4.239a.356.356,0,0,0,.293.172.334.334,0,0,0,.293-.172l1.257-2.239h2.756a.334.334,0,0,0,.293-.172A.285.285,0,0,0,16.248,258.363Z" transform="translate(0 -240.376)"/></g><rect class="c" width="24" height="24" transform="translate(8 8)"/></g></g></svg>