<svg xmlns="http://www.w3.org/2000/svg" xmlns:xlink="http://www.w3.org/1999/xlink" width="40" height="40" viewBox="0 0 40 40"><defs><style>.a{fill:url(#a);}.b{fill:none;}.c{fill:#fff;}</style><linearGradient id="a" x1="0.565" y1="0.909" x2="-0.162" y2="-0.049" gradientUnits="objectBoundingBox"><stop offset="0" stop-color="#4272a6"/><stop offset="1" stop-color="#eb4662"/></linearGradient></defs><g transform="translate(-32 -134)"><g transform="translate(32 134)"><path class="a" d="M20,0A20,20,0,1,1,0,20,20,20,0,0,1,20,0Z"/><g transform="translate(8 8)"><path class="b" d="M0,0H24V24H0Z"/><g transform="translate(2.994 1)"><path class="c" d="M45.815,383.551l-2.564,2.564-.829-.829,2.564-2.564Zm0,0" transform="translate(-40.761 -367.77)"/><path class="c" d="M44.154,319.078l.829.829-1.736,1.736-.829-.829Zm0,0" transform="translate(-40.757 -306.612)"/><path class="c" d="M129.842,404.766l-1.736,1.736-.829-.829,1.736-1.735Zm0,0" transform="translate(-122.301 -388.156)"/><path class="c" d="M.837,469.582l.829.829-.829.829-.829-.829Zm0,0" transform="translate(-0.004 -451.236)"/><path class="c" d="M.833,384.73l.829.829-.829.829L0,385.559Zm0,0" transform="translate(0 -369.7)"/><path class="c" d="M86.505,470.4l-.829.829-.829-.829.829-.829Zm0,0" transform="translate(-81.529 -451.229)"/><path class="c" d="M17.328.769A2.6,2.6,0,0,0,14.65.136L9.969,1.7l1.024,1.025,2.522-.841.371,1.112-1.966.656.034.034a3.4,3.4,0,0,1,.664.969L14.257,4.1l.371,1.112-1.7.569c.01.1.031.207.031.312a4.59,4.59,0,0,0,.382,1.812,6.417,6.417,0,0,1,4.783-3.995,3.633,3.633,0,0,1-.051-.966A2.7,2.7,0,0,0,17.328.769Zm0,0" transform="translate(-9.576)"/><path class="c" d="M316.695,294.193a2.693,2.693,0,0,0-2.178-.74,3.643,3.643,0,0,1-.967-.051,6.418,6.418,0,0,1-4,4.783,4.591,4.591,0,0,0,1.812.382c.1,0,.208.022.312.031l.569-1.7,1.112.371-.547,1.639a3.4,3.4,0,0,1,.969.664l.034.034.656-1.966,1.112.37-.841,2.522,1.025,1.025,1.561-4.682A2.6,2.6,0,0,0,316.695,294.193Zm0,0" transform="translate(-297.457 -281.94)"/><path class="c" d="M5.272,10.543a5.272,5.272,0,0,1-3.73-9A5.274,5.274,0,0,1,9,9,5.238,5.238,0,0,1,5.272,10.543ZM4.124,3.983a.127.127,0,0,0-.093.038l-.369.369a.119.119,0,0,0-.038.09c-.023.759-.094,1.8-.212,3.108a.121.121,0,0,0,.037.108l.567.567a.129.129,0,0,0,.091.041A.131.131,0,0,0,4.153,8.3a.114.114,0,0,0,.087-.111c.128-1.259.2-2.233.224-2.893a2.09,2.09,0,0,0,1.122.483c.044,0,.088.005.132.005a1.556,1.556,0,0,0,.924-.31l.488.488a.126.126,0,0,0,.186,0l.3-.3a.131.131,0,0,0,.04-.093.128.128,0,0,0-.04-.093l-.5-.5a1.418,1.418,0,0,0,.233-.6l.677.677a.131.131,0,0,0,.093.041.129.129,0,0,0,.093-.041l.3-.3a.128.128,0,0,0,.041-.092.132.132,0,0,0-.041-.094L6.089,2.149a.126.126,0,0,0-.186,0l-.387.386a.13.13,0,0,0-.037.093.127.127,0,0,0,.037.093l.422.422c.407.407.559.78.451,1.108l-1.2-1.2A.126.126,0,0,0,5,3.05l-.3.3a.131.131,0,0,0-.04.093.128.128,0,0,0,.04.093L5.947,4.775a.782.782,0,0,1-.394.107.925.925,0,0,1-.268-.042,1.855,1.855,0,0,1-.742-.492l-.326-.326A.127.127,0,0,0,4.124,3.983Z" transform="translate(4.494 4.969)"/></g></g></g></g></svg>