<svg xmlns="http://www.w3.org/2000/svg" xmlns:xlink="http://www.w3.org/1999/xlink" width="40" height="40" viewBox="0 0 40 40"><defs><style>.a{fill:url(#a);}.b{fill:none;}.c{fill:#fff;}</style><linearGradient id="a" x1="0.565" y1="0.909" x2="-0.162" y2="-0.049" gradientUnits="objectBoundingBox"><stop offset="0" stop-color="#4272a6"/><stop offset="1" stop-color="#eb4662"/></linearGradient></defs><g transform="translate(-4143 1134)"><path class="a" d="M20,0A20,20,0,1,1,0,20,20,20,0,0,1,20,0Z" transform="translate(4143 -1134)"/><path class="a" d="M20,0A20,20,0,1,1,0,20,20,20,0,0,1,20,0Z" transform="translate(4143 -1134)"/><rect class="b" width="24" height="24" transform="translate(4151 -1126)"/><path class="c" d="M-3107.972,1233.471c-.959,0-1.172-.15-1.475-1.037v-.226c.183-.4.348-.805.549-1.193.519-1,1.064-1.989,1.579-2.991a1.239,1.239,0,0,1,1.234-.749c1.246.022,2.493.017,3.739,0a1.162,1.162,0,0,1,1.134.674c.648,1.23,1.3,2.456,1.953,3.686a1.245,1.245,0,0,1-.053,1.406.941.941,0,0,1-.732.415c-.122.008-.243.013-.365.013Zm-11.525,0c-.959,0-1.173-.15-1.475-1.037v-.226c.182-.4.347-.805.549-1.193.519-1,1.063-1.989,1.579-2.991a1.238,1.238,0,0,1,1.233-.749c1.247.022,2.493.017,3.739,0a1.162,1.162,0,0,1,1.134.674q.973,1.846,1.954,3.686a1.243,1.243,0,0,1-.054,1.406.939.939,0,0,1-.732.415c-.121.008-.243.013-.365.013Zm18.16-8.147a.391.391,0,0,0-.388-.378c-.369-.06-.733-.149-1.1-.229a1.819,1.819,0,0,1-.219-.082c.487-.106.922-.221,1.363-.29.235-.037.3-.15.34-.36.079-.442.184-.878.28-1.318h.044c.1.449.2.9.283,1.348.036.19.1.288.31.323a9.249,9.249,0,0,1,1.344.336c-.416.09-.83.2-1.25.266a.421.421,0,0,0-.419.413,8.241,8.241,0,0,1-.31,1.29C-3101.154,1226.205-3101.271,1225.769-3101.337,1225.324Zm-16.765-1.053a.392.392,0,0,0-.388-.379c-.37-.06-.733-.149-1.1-.229a1.805,1.805,0,0,1-.219-.081c.487-.107.922-.222,1.363-.291.235-.036.3-.149.339-.359.08-.443.185-.879.281-1.318h.043c.1.449.2.9.284,1.348.036.19.1.288.31.323a9.273,9.273,0,0,1,1.344.336c-.417.091-.83.2-1.25.266a.421.421,0,0,0-.419.414,8.345,8.345,0,0,1-.311,1.29C-3117.92,1225.151-3118.036,1224.715-3118.1,1224.271Zm4.468.625,2.667-3.46,1.091,1.1,1.09-1.439.678.518-1.68,2.218-1.1-1.1-2.075,2.692Zm3.065-6.327-3.11,3.785-.656-.545,3.656-4.448,5.316,4.469,1.271-2.141-1.019-.612,2.816-1.58-.047,3.243-1.02-.612-1.782,3Zm3.035.4,2.495-3.208-.935-.735,2.99-1.213-.45,3.21-.935-.735-2.494,3.208Z" transform="translate(7272.973 -2337.809)"/></g></svg>