<svg xmlns="http://www.w3.org/2000/svg" xmlns:xlink="http://www.w3.org/1999/xlink" width="34" height="34" viewBox="0 0 34 34"><defs><style>.a{fill:url(#a);}.b{fill:url(#b);}.c{fill:none;stroke:#fafcff;stroke-width:2px;}</style><linearGradient id="a" x1="0.565" y1="0.909" x2="-0.669" y2="-0.171" gradientUnits="objectBoundingBox"><stop offset="0" stop-color="#003975"/><stop offset="1" stop-color="#eb4662"/></linearGradient><linearGradient id="b" x1="0.5" x2="0.5" y2="1" gradientUnits="objectBoundingBox"><stop offset="0" stop-color="#cce5ff"/><stop offset="1" stop-color="#ed1f48"/></linearGradient></defs><g transform="translate(-5.462 -6)"><circle class="a" cx="16" cy="16" r="16" transform="translate(6.463 7)"/><path class="b" d="M35.3,30.442C33.07,28.275,29.7,25,24.756,25c-3.93,0-6.665,2.061-9.206,4.278A10.177,10.177,0,0,0,11.13,28.2a9.893,9.893,0,0,0-4.668,1.5l.681,1.079a8.687,8.687,0,0,1,3.987-1.3,8.637,8.637,0,0,1,3.366.729,19.961,19.961,0,0,1-6.629,4.423l.208.625c-.167.063-.268.11-.283.117l.554,1.151a10.1,10.1,0,0,1,4.065-.647,9.432,9.432,0,0,1,4.271,1.316,8.157,8.157,0,0,1-4.1,1.243,4.77,4.77,0,0,1-3.158-1.363l-.461.439L8.5,37.95a5.98,5.98,0,0,0,4.08,1.767,9.979,9.979,0,0,0,5.374-1.8c.577.344,1.151.707,1.722,1.067.494.312.992.626,1.492.93l-.578.569c-1.528,1.513-3.108,3.077-4.173,3.077v1.28c1.581,0,3.192-1.6,5.058-3.442.273-.27.551-.545.833-.819a11.175,11.175,0,0,0,5.3,1.7,12.489,12.489,0,0,0,8.583-3.395l-.909-.891s-.07.07-.185.173a9.866,9.866,0,0,1-2.034-.784c-.63-.289-1.329-.6-2.067-.875a19.823,19.823,0,0,0,2.56-1.3l.178-.1a5.809,5.809,0,0,0,3.448,1.479V35.31a3.872,3.872,0,0,1-2.2-.873,6.333,6.333,0,0,1,2.834-.769V32.384C37.3,32.384,36.284,31.4,35.3,30.442ZM12.41,34.6a16.082,16.082,0,0,0-1.647.086,30.244,30.244,0,0,0,4.727-3.656l.244-.216a34.671,34.671,0,0,1,3.818,2.553c.42.308.842.618,1.268.921-.343.25-.683.5-1.022.757-.634.474-1.258.94-1.885,1.369A11.456,11.456,0,0,0,12.41,34.6Zm7.934,3.3c-.407-.257-.816-.514-1.227-.767.484-.344.961-.7,1.435-1.055s.925-.692,1.385-1.02a14.7,14.7,0,0,0,3.191,1.642,15.964,15.964,0,0,0-3.007,2.3C21.527,38.641,20.933,38.267,20.345,37.895Zm2.742-3.619a8.724,8.724,0,0,1,4.689-1.6A8.027,8.027,0,0,1,32.6,34.288a9.6,9.6,0,0,1-4.879,1.59A8.87,8.87,0,0,1,23.087,34.276Zm10.757,4.839A11.438,11.438,0,0,1,27.609,41a9.511,9.511,0,0,1-4.322-1.342c1.51-1.365,3.1-2.5,4.639-2.5a11.663,11.663,0,0,1,4.615,1.388C33.016,38.764,33.446,38.959,33.844,39.115ZM33.829,33.6a9.63,9.63,0,0,0-6.053-2.2,10.474,10.474,0,0,0-5.844,2.11c-.541-.377-1.084-.774-1.634-1.179a40.449,40.449,0,0,0-3.541-2.412c2.316-1.987,4.685-3.639,8-3.639,4.433,0,7.458,2.939,9.668,5.085.526.511,1,.966,1.433,1.335A11.482,11.482,0,0,0,33.829,33.6Z" transform="translate(0 -6.482)"/><path class="c" d="M16,0a16.371,16.371,0,0,1,4.169.549A16.014,16.014,0,1,1,16,0Z" transform="translate(6.462 7)"/></g></svg>