<svg xmlns="http://www.w3.org/2000/svg" xmlns:xlink="http://www.w3.org/1999/xlink" width="40" height="40" viewBox="0 0 40 40"><defs><style>.a{fill:url(#a);}.b{fill:none;}.c{fill:#fff;}</style><linearGradient id="a" x1="0.565" y1="0.909" x2="-0.162" y2="-0.049" gradientUnits="objectBoundingBox"><stop offset="0" stop-color="#4272a6"/><stop offset="1" stop-color="#eb4662"/></linearGradient></defs><path class="a" d="M20,0A20,20,0,1,1,0,20,20,20,0,0,1,20,0Z"/><g transform="translate(8 8)"><rect class="b" width="24" height="24"/><path class="c" d="M12.128,16.367H.926A1.05,1.05,0,0,1,0,15.23V7.744A1.047,1.047,0,0,1,.926,6.61h.331V5.117A5.186,5.186,0,0,1,6.372,0h.31A5.186,5.186,0,0,1,11.8,5.117V6.61h.331a1.047,1.047,0,0,1,.926,1.134V15.23A1.05,1.05,0,0,1,12.128,16.367ZM6.538,9.5a1.429,1.429,0,0,0-1.453,1.4,1.4,1.4,0,0,0,.726,1.212v1.561a.727.727,0,0,0,1.453,0V12.117A1.4,1.4,0,0,0,7.991,10.9,1.429,1.429,0,0,0,6.538,9.5ZM6.527,2.113a3.051,3.051,0,0,0-3.089,3V6.61H9.616V5.117A3.051,3.051,0,0,0,6.527,2.113Z" transform="translate(5 3.999)"/></g></svg>