<svg xmlns="http://www.w3.org/2000/svg" xmlns:xlink="http://www.w3.org/1999/xlink" width="24" height="24" viewBox="0 0 24 24"><defs><style>.a{fill:none;}.b{clip-path:url(#a);}.c{fill:url(#b);}.d{fill:#fff;}</style><clipPath id="a"><rect class="a" width="24" height="24"/></clipPath><linearGradient id="b" x1="0.565" y1="0.909" x2="-0.162" y2="-0.049" gradientUnits="objectBoundingBox"><stop offset="0" stop-color="#4272a6"/><stop offset="1" stop-color="#eb4662"/></linearGradient></defs><g transform="translate(12146 927)"><g class="b" transform="translate(-12146 -927)"><path class="c" d="M11.767,0A11.767,11.767,0,1,1,0,11.767,11.767,11.767,0,0,1,11.767,0Z"/></g><g transform="translate(-12141.293 -922.293)"><rect class="a" width="14" height="14" transform="translate(0.293 0.293)"/><path class="d" d="M15.844,11.726a2.059,2.059,0,1,1-2.059-2.059A2.022,2.022,0,0,1,15.844,11.726ZM9.667,17.217c0-1.373,2.746-2.128,4.118-2.128s4.118.755,4.118,2.128V17.9H9.667Z" transform="translate(-6.725 -6.725)"/></g></g></svg>