<svg xmlns="http://www.w3.org/2000/svg" xmlns:xlink="http://www.w3.org/1999/xlink" width="24" height="24" viewBox="0 0 24 24"><defs><style>.a{fill:url(#a);}.b{fill:none;}.c{fill:#fff;}</style><linearGradient id="a" x1="0.565" y1="0.909" x2="-0.162" y2="-0.049" gradientUnits="objectBoundingBox"><stop offset="0" stop-color="#4272a6"/><stop offset="1" stop-color="#eb4662"/></linearGradient></defs><g transform="translate(12098 805)"><g transform="translate(-12098 -805)"><path class="a" d="M11.8,0A11.8,11.8,0,1,1,0,11.8,11.8,11.8,0,0,1,11.8,0Z"/></g><g transform="translate(-12093 -800)"><path class="b" d="M0,0H14V14H0Z"/><path class="c" d="M2.947,5.714V9.381H4.368V5.714Zm2.842,0V9.381H7.211V5.714ZM2,12h9V10.429H2ZM8.632,5.714V9.381h1.421V5.714ZM6.5,1,2,3.619V4.667h9V3.619Z"/></g></g></svg>