<svg xmlns="http://www.w3.org/2000/svg" xmlns:xlink="http://www.w3.org/1999/xlink" width="24" height="24" viewBox="0 0 24 24"><defs><style>.a{fill:none;}.b{clip-path:url(#a);}.c{fill:url(#b);}.d{fill:#fff;}</style><clipPath id="a"><rect class="a" width="24" height="24"/></clipPath><linearGradient id="b" x1="0.565" y1="0.909" x2="-0.162" y2="-0.049" gradientUnits="objectBoundingBox"><stop offset="0" stop-color="#4272a6"/><stop offset="1" stop-color="#eb4662"/></linearGradient></defs><g transform="translate(-131 -1005)"><g class="b" transform="translate(131 1005)"><path class="c" d="M12,0A12,12,0,1,1,0,12,12,12,0,0,1,12,0Z"/></g><g transform="translate(135.8 1009.8)"><rect class="a" width="14" height="14" transform="translate(0.2 0.2)"/><g transform="translate(3 1.8)"><path class="d" d="M61.741,0H54.772a.721.721,0,0,0-.72.72v9.368a.721.721,0,0,0,.72.72h6.968a.721.721,0,0,0,.72-.72V.72A.721.721,0,0,0,61.741,0ZM55.072,1.724a.537.537,0,0,1,.537-.537h5.3a.536.536,0,0,1,.537.537v.793a.536.536,0,0,1-.537.537h-5.3a.537.537,0,0,1-.537-.537Zm2.163,7.423a.281.281,0,1,1-.4.4l-.5-.5-.5.5a.281.281,0,0,1-.4-.4l.5-.5-.5-.5a.281.281,0,0,1,.4-.4l.5.5.5-.5a.281.281,0,0,1,.4.4l-.5.5Zm.089-3.431h-.7v.7a.281.281,0,0,1-.562,0v-.7h-.7a.281.281,0,1,1,0-.562h.7v-.7a.281.281,0,0,1,.562,0v.7h.7a.281.281,0,0,1,0,.562Zm2.089,3.974a.281.281,0,0,1-.2-.48L60.606,7.82a.281.281,0,1,1,.4.4L59.613,9.608A.28.28,0,0,1,59.414,9.691Zm-.333-1.735a.344.344,0,1,1,.344.344A.344.344,0,0,1,59.081,7.955ZM60.934,9.69a.344.344,0,1,1,.344-.344A.344.344,0,0,1,60.934,9.69Zm.229-3.973H59.2a.281.281,0,1,1,0-.562h1.967a.281.281,0,0,1,0,.562Z" transform="translate(-54.052)"/></g></g></g></svg>