<svg xmlns="http://www.w3.org/2000/svg" xmlns:xlink="http://www.w3.org/1999/xlink" width="40" height="40" viewBox="0 0 40 40">
  <defs>
    <linearGradient id="linear-gradient" x1="0.565" y1="0.909" x2="-0.162" y2="-0.049" gradientUnits="objectBoundingBox">
      <stop offset="0" stop-color="#4272a6"/>
      <stop offset="1" stop-color="#eb4662"/>
    </linearGradient>
  </defs>
  <g id="Savings_account_icon" data-name="Savings account icon" transform="translate(-32 -134)">
    <g id="Circle_icon_fill" data-name="Circle icon fill" transform="translate(32 134)">
      <path id="Path_1784" data-name="Path 1784" d="M20,0A20,20,0,1,1,0,20,20,20,0,0,1,20,0Z" fill="url(#linear-gradient)"/>
      <g id="Group_68693" data-name="Group 68693">
        <rect id="Rectangle_5357" data-name="Rectangle 5357" width="24" height="24" transform="translate(8 8)" fill="none"/>
        <path id="Exclusion_8" data-name="Exclusion 8" d="M13.668,17.092H2.466a1.05,1.05,0,0,1-.926-1.138V8.468a1.047,1.047,0,0,1,.926-1.133H2.8V5.842A5.184,5.184,0,0,1,7.912.726h.31a5.184,5.184,0,0,1,5.115,5.116V7.335h.331a1.047,1.047,0,0,1,.926,1.133v7.486A1.05,1.05,0,0,1,13.668,17.092Zm-5.59-6.863a1.429,1.429,0,0,0-1.453,1.4,1.4,1.4,0,0,0,.726,1.212V14.4a.727.727,0,0,0,1.454,0V12.841a1.4,1.4,0,0,0,.726-1.212A1.429,1.429,0,0,0,8.078,10.229ZM8.067,2.838a3.051,3.051,0,0,0-3.089,3V7.335h6.178V5.842A3.051,3.051,0,0,0,8.067,2.838Z" transform="translate(11.46 11.274)" fill="#fff"/>
      </g>
    </g>
  </g>
</svg>
